<svg width="704" height="120" viewBox="0 0 704 120" fill="none" xmlns="http://www.w3.org/2000/svg">
<path d="M143.266 83.8539C138.426 80.2591 135.824 75.1148 135.457 68.415H154.66C154.843 70.6876 155.515 72.3496 156.681 73.3923C157.844 74.4379 159.345 74.9592 161.183 74.9592C162.837 74.9592 164.201 74.5444 165.272 73.7149C166.343 72.8853 166.88 71.7332 166.88 70.2584C166.88 68.3545 165.992 66.8797 164.215 65.8341C162.438 64.7914 159.561 63.622 155.578 62.3316C151.352 60.9173 147.935 59.552 145.334 58.2299C142.73 56.9107 140.464 54.9722 138.535 52.423C136.605 49.8739 135.64 46.5413 135.64 42.4223C135.64 38.3034 136.68 34.6654 138.764 31.6842C140.846 28.7059 143.726 26.4448 147.401 24.9095C151.076 23.3743 155.242 22.6052 159.897 22.6052C167.431 22.6052 173.449 24.3738 177.951 27.9051C182.453 31.4394 184.856 36.4023 185.164 42.791H165.593C165.533 40.8237 164.936 39.3518 163.802 38.3667C162.667 37.3845 161.212 36.892 159.437 36.892C158.091 36.892 156.985 37.2923 156.13 38.0902C155.271 38.8881 154.843 40.0258 154.843 41.5006C154.843 42.7305 155.317 43.7905 156.267 44.6805C157.215 45.5735 158.395 46.3396 159.805 46.9849C161.212 47.6301 163.296 48.4452 166.053 49.4274C170.156 50.8417 173.541 52.2387 176.205 53.6213C178.87 55.0039 181.167 56.9395 183.096 59.4282C185.026 61.9168 185.991 65.068 185.991 68.8758C185.991 72.6837 185.026 76.2208 183.096 79.2913C181.167 82.3647 178.379 84.79 174.735 86.573C171.089 88.3559 166.788 89.246 161.826 89.246C154.292 89.246 148.104 87.4486 143.266 83.8539Z" fill="white"/>
<path d="M224.761 73.2079V88.6007H216.951C203.781 88.6007 197.197 82.0564 197.197 68.9679V51.916H190.857V36.8919H197.197V24.3564H215.297V36.8919H224.669V51.916H215.297V69.2445C215.297 70.6587 215.619 71.6726 216.262 72.2862C216.905 72.9026 217.991 73.2079 219.524 73.2079H224.761Z" fill="white"/>
<path d="M282.002 66.3872H247.915C248.098 69.2129 248.879 71.3185 250.258 72.7011C251.636 74.0836 253.396 74.7749 255.541 74.7749C258.541 74.7749 260.686 73.424 261.972 70.7194H281.175C280.377 74.2853 278.832 77.4652 276.535 80.2592C274.238 83.0561 271.344 85.2509 267.853 86.8496C264.361 88.4482 260.502 89.246 256.276 89.246C251.191 89.246 246.674 88.1716 242.723 86.02C238.773 83.8712 235.677 80.7978 233.444 76.8027C231.207 72.8076 230.09 68.1068 230.09 62.7003C230.09 57.2938 231.193 52.6075 233.398 48.644C235.603 44.6806 238.681 41.6245 242.632 39.4729C246.582 37.3241 251.13 36.2468 256.276 36.2468C261.421 36.2468 265.86 37.2924 269.782 39.3807C273.701 41.469 276.765 44.4646 278.97 48.3675C281.175 52.2704 282.278 56.8647 282.278 62.1473C282.278 63.5616 282.186 64.973 282.002 66.3872ZM263.902 57.6309C263.902 55.4187 263.167 53.6818 261.697 52.4231C260.227 51.1644 258.389 50.5336 256.184 50.5336C253.979 50.5336 252.173 51.1327 250.763 52.3309C249.353 53.5292 248.434 55.2949 248.007 57.6309H263.902Z" fill="white"/>
<path d="M289.582 48.6901C291.512 44.6979 294.144 41.6245 297.484 39.4729C300.82 37.3241 304.544 36.2468 308.647 36.2468C312.199 36.2468 315.262 36.9525 317.835 38.3668C320.408 39.7811 322.398 41.685 323.807 44.0815V36.892H341.816V88.6008H323.807V81.4114C322.398 83.8079 320.393 85.7118 317.789 87.1261C315.185 88.5403 312.139 89.246 308.647 89.246C304.544 89.246 300.82 88.1716 297.484 86.02C294.144 83.8712 291.512 80.7806 289.582 76.7567C287.653 72.7327 286.688 68.0463 286.688 62.7003C286.688 57.3543 287.653 52.6852 289.582 48.6901ZM321.097 54.8657C319.291 52.9617 317.068 52.0083 314.436 52.0083C311.803 52.0083 309.503 52.9445 307.728 54.8196C305.951 56.6947 305.064 59.3216 305.064 62.7003C305.064 66.079 305.951 68.6455 307.728 70.5811C309.506 72.5167 311.739 73.4845 314.436 73.4845C317.132 73.4845 319.288 72.534 321.097 70.6272C322.903 68.7232 323.807 66.079 323.807 62.7003C323.807 59.3216 322.903 56.7725 321.097 54.8657Z" fill="white"/>
<path d="M370.115 20.3931V88.6007H352.106V20.3931H370.115Z" fill="white"/>
<path d="M410.817 73.2079V88.6007H403.008C389.837 88.6007 383.254 82.0564 383.254 68.9679V51.916H376.914V36.8919H383.254V24.3564H401.354V36.8919H410.726V51.916H401.354V69.2445C401.354 70.6587 401.675 71.6726 402.319 72.2862C402.962 72.9026 404.05 73.2079 405.58 73.2079H410.817Z" fill="white"/>
<path d="M466.999 42.3762C470.459 46.3396 472.19 51.7029 472.19 58.4603V88.6007H454.182V60.8568C454.182 57.9073 453.415 55.5886 451.885 53.8978C450.354 52.207 448.302 51.363 445.729 51.363C443.156 51.363 440.92 52.207 439.389 53.8978C437.856 55.5886 437.092 57.9073 437.092 60.8568V88.6007H419.084V20.3931H437.092V44.2658C438.683 41.9326 440.842 40.0402 443.57 38.5971C446.295 37.1541 449.433 36.4311 452.987 36.4311C458.868 36.4311 463.539 38.4128 466.999 42.3762Z" fill="white"/>
<path d="M557.73 23.6191V88.6008H539.722V52.7457L527.502 88.6008H512.434L500.122 52.4691V88.6008H482.113V23.6191H503.889L520.152 65.8342L536.047 23.6191H557.73Z" fill="white"/>
<path d="M578.174 86.02C574.099 83.8712 570.901 80.7978 568.572 76.8027C566.244 72.8076 565.081 68.1068 565.081 62.7003C565.081 57.2938 566.261 52.6852 568.618 48.6901C570.975 44.6979 574.191 41.6245 578.265 39.4729C582.34 37.3241 586.948 36.2468 592.093 36.2468C597.239 36.2468 601.847 37.3212 605.921 39.4729C609.996 41.6245 613.208 44.6979 615.569 48.6901C617.926 52.6852 619.106 57.3543 619.106 62.7003C619.106 68.0463 617.926 72.7327 615.569 76.7567C613.211 80.7806 609.978 83.8712 605.875 86.02C601.772 88.1716 597.147 89.246 592.001 89.246C586.856 89.246 582.248 88.1716 578.174 86.02ZM598.295 70.7654C599.981 68.8932 600.822 66.2029 600.822 62.7003C600.822 59.1978 599.978 56.5248 598.295 54.6813C596.61 52.8379 594.542 51.9162 592.093 51.9162C589.644 51.9162 587.591 52.8379 585.937 54.6813C584.284 56.5248 583.457 59.1978 583.457 62.7003C583.457 66.2029 584.252 68.9681 585.845 70.8115C587.436 72.655 589.489 73.5767 592.001 73.5767C594.514 73.5767 596.61 72.6406 598.295 70.7654Z" fill="white"/>
<path d="M644.462 20.3931V88.6007H626.453V20.3931H644.462Z" fill="white"/>
<path d="M703.724 66.3872H669.637C669.821 69.2129 670.602 71.3185 671.98 72.7011C673.358 74.0836 675.118 74.7749 677.263 74.7749C680.263 74.7749 682.408 73.424 683.695 70.7194H702.897C702.102 74.2853 700.554 77.4652 698.257 80.2592C695.96 83.0561 693.066 85.2509 689.575 86.8496C686.083 88.4482 682.225 89.246 677.998 89.246C672.913 89.246 668.397 88.1716 664.446 86.02C660.495 83.8712 657.4 80.7978 655.166 76.8027C652.929 72.8076 651.812 68.1068 651.812 62.7003C651.812 57.2938 652.915 52.6075 655.12 48.644C657.325 44.6806 660.403 41.6245 664.354 39.4729C668.305 37.3241 672.853 36.2468 677.998 36.2468C683.143 36.2468 687.582 37.2924 691.504 39.3807C695.424 41.469 698.487 44.4646 700.692 48.3675C702.897 52.2704 704 56.8647 704 62.1473C704 63.5616 703.908 64.973 703.724 66.3872ZM685.624 57.6309C685.624 55.4187 684.889 53.6818 683.419 52.4231C681.949 51.1644 680.111 50.5336 677.906 50.5336C675.701 50.5336 673.895 51.1327 672.485 52.3309C671.075 53.5292 670.157 55.2949 669.729 57.6309H685.624Z" fill="white"/>
<path d="M46.2901 50.0986C48.553 50.0986 50.3874 48.2583 50.3874 45.9882C50.3874 43.7182 48.553 41.8779 46.2901 41.8779C44.0273 41.8779 42.1929 43.7182 42.1929 45.9882C42.1929 48.2583 44.0273 50.0986 46.2901 50.0986Z" fill="#F53D6B"/>
<path d="M6.49475 71.5403C9.2052 64.6389 12.6995 58.0255 17.7558 51.2249C27.294 38.3927 42.0809 31.7707 57.0832 32.3036C67.4311 32.6694 87.1652 35.57 96.8729 28.9018C97.4414 28.5101 98.2223 28.8673 98.3142 29.5528C98.452 30.5869 98.7133 31.7189 98.7449 32.0991C98.8913 33.8676 99.2043 36.2008 97.9926 37.6899C97.0739 38.819 71.2528 85.5476 69.6219 89.1193C68.1719 92.2906 67.3737 95.1192 67.5891 98.3308C77.6327 88.6901 88.2706 95.436 90.7313 97.2363C102.567 87.1088 110.072 72.0415 110.072 55.2142C110.072 37.5401 101.791 21.8074 88.9138 11.703H88.9195C88.6238 11.4726 88.3223 11.2422 88.0208 11.0175C87.8945 10.9224 87.7681 10.8332 87.6418 10.7381C87.438 10.5883 87.237 10.4385 87.0302 10.2916C86.8809 10.1851 86.7316 10.0814 86.5823 9.9748C86.3957 9.84518 86.2091 9.71268 86.0224 9.58595C85.8674 9.47937 85.7123 9.37567 85.5544 9.2691C85.3678 9.14236 85.1783 9.01851 84.9888 8.89465C84.8337 8.79383 84.6787 8.69302 84.5236 8.59221C84.3198 8.46259 84.1159 8.33585 83.9121 8.20911C83.7685 8.11982 83.6249 8.03053 83.4785 7.94124C83.177 7.75689 82.8727 7.57831 82.5655 7.39973C82.4248 7.31908 82.2841 7.23842 82.1434 7.16065C81.8907 7.01663 81.638 6.87549 81.3825 6.73435C81.2332 6.65082 81.081 6.57305 80.9289 6.48952C80.7164 6.37431 80.5039 6.26197 80.2886 6.14964C80.1278 6.0661 79.967 5.98545 79.8062 5.90192C79.5966 5.79535 79.3841 5.68877 79.1716 5.58508C79.0109 5.50731 78.8501 5.42666 78.6864 5.34889C78.4624 5.24231 78.2385 5.13862 78.0145 5.03493C77.8624 4.9658 77.7131 4.89378 77.5609 4.82466C77.2766 4.69504 76.9895 4.57118 76.7024 4.44733C76.6105 4.407 76.5186 4.36667 76.4267 4.32635C76.0564 4.16793 75.6802 4.01526 75.3041 3.86548C75.1634 3.80788 75.0198 3.75603 74.8763 3.69842C74.6293 3.60337 74.3824 3.50832 74.1355 3.41614C73.9747 3.35566 73.8139 3.29805 73.6531 3.24044C73.4177 3.15691 73.1822 3.07338 72.9439 2.98985C72.7803 2.93224 72.6166 2.87751 72.4529 2.82278C72.2089 2.74213 71.9648 2.66148 71.7179 2.58371C71.5629 2.53474 71.4078 2.4829 71.2528 2.43681C70.9628 2.34752 70.6728 2.26111 70.3828 2.17758C70.2708 2.14589 70.1617 2.11133 70.0497 2.07964C69.6506 1.96731 69.2515 1.85785 68.8495 1.75416C68.7289 1.72247 68.6083 1.69367 68.4878 1.66487C68.1978 1.59286 67.9078 1.52085 67.6149 1.45172C67.4598 1.41427 67.3019 1.37971 67.1469 1.34514C66.8856 1.28753 66.6272 1.22993 66.3659 1.1752C66.2022 1.14064 66.0386 1.10607 65.8721 1.07439C65.6108 1.02254 65.3466 0.970691 65.0825 0.921724C64.9245 0.89292 64.7666 0.864118 64.6087 0.835314C64.313 0.783467 64.0172 0.7345 63.7186 0.688413C63.5923 0.668251 63.4688 0.648088 63.3425 0.627925C62.9204 0.564557 62.4983 0.504068 62.0734 0.44934C61.993 0.437819 61.9126 0.432058 61.8351 0.420537C61.4877 0.377331 61.1402 0.337006 60.79 0.299561C60.6406 0.285159 60.4913 0.270757 60.342 0.256355C60.0578 0.230431 59.7735 0.204507 59.4893 0.181464C59.3256 0.167062 59.162 0.155541 58.9954 0.14402C58.7169 0.123857 58.4413 0.106574 58.1628 0.0921724C57.9991 0.0835313 57.8383 0.0748911 57.6747 0.06625C57.376 0.051848 57.0774 0.0403257 56.7788 0.0316845C56.6381 0.0259237 56.4974 0.020162 56.3568 0.0172816C55.9175 0.00576008 55.4781 0 55.036 0C48.3862 0 42.0149 1.18384 36.1145 3.34989C35.6924 3.50544 35.2732 3.66386 34.8569 3.82804C34.0242 4.1564 33.2002 4.50781 32.3876 4.8765C31.5751 5.24519 30.774 5.63405 29.9815 6.04018C29.4446 6.3167 28.9134 6.60474 28.388 6.89854C27.7506 7.25282 27.1218 7.61575 26.4987 7.99308C25.8728 8.37618 25.2555 8.77367 24.6439 9.17981C23.6964 9.81061 22.769 10.4702 21.8616 11.1586C20.2107 12.4116 18.6286 13.7567 17.1298 15.1854C17.1011 15.2142 17.0695 15.2402 17.0408 15.269C6.54069 25.3215 0 39.4988 0 55.2113C0 55.6463 0.00574178 56.0783 0.0172268 56.5075C0.0172268 56.6026 0.0229705 56.6976 0.0229705 56.7927C0.0344554 57.2161 0.0516824 57.6424 0.0717811 58.0629C0.0717811 58.1148 0.0775232 58.1666 0.0803944 58.2185C0.100493 58.6073 0.126337 58.9962 0.15505 59.385C0.160792 59.4657 0.166534 59.5492 0.172276 59.6299C0.206731 60.0504 0.244057 60.4681 0.284255 60.8857C0.292868 60.9577 0.298611 61.0297 0.307225 61.1017C0.347422 61.4877 0.393363 61.8737 0.442174 62.2568C0.447916 62.3115 0.456528 62.3662 0.46227 62.4181C0.516824 62.8386 0.577119 63.2563 0.640286 63.6711C0.651771 63.7488 0.663257 63.8237 0.677613 63.9015C0.743652 64.322 0.812563 64.7426 0.890087 65.1573C0.967611 65.5808 1.05088 66.0042 1.13701 66.4247C1.15137 66.4967 1.16572 66.5687 1.18295 66.6407C1.27196 67.0613 1.36384 67.4818 1.46146 67.8995C1.46146 67.8995 1.46146 67.9052 1.46146 67.9081C1.55908 68.3229 1.66245 68.7377 1.76869 69.1496C1.78304 69.2072 1.7974 69.2677 1.81463 69.3253C1.92373 69.74 2.03571 70.1519 2.15343 70.561C2.16205 70.5955 2.17353 70.6272 2.18215 70.6618C2.297 71.0593 2.41759 71.4539 2.54105 71.8456C2.55254 71.8802 2.56402 71.9147 2.57264 71.9522C2.70184 72.3612 2.83679 72.7673 2.97461 73.1735C2.99184 73.2196 3.00619 73.2656 3.02342 73.3146C3.3048 74.1298 3.60628 74.9363 3.92499 75.7313C3.94509 75.7831 3.96806 75.835 3.98816 75.8868C8.40413 86.8467 16.2254 96.0582 26.1369 102.205C16.4809 94.6266 9.41194 83.8856 6.4804 71.5345L6.49475 71.5403Z" fill="white"/>
<path d="M66.5439 102.824C61.6513 107.07 55.4408 109.501 48.9719 109.515C48.9288 109.515 48.8858 109.515 48.8427 109.515C47.1831 109.515 45.5436 109.44 43.9214 109.296C43.9214 109.296 44.042 109.319 44.2631 109.362C45.2996 109.57 46.3505 109.746 47.4071 109.892C52.5811 110.682 62.4926 111.825 70.0612 110.463C71.5427 110.463 73.03 110.529 74.4484 110.751C80.9805 111.779 83.5417 120 83.5417 120C85.5917 114.346 80.211 108.438 80.211 108.438C87.7681 110.235 90.4556 118.588 90.4556 118.588C91.2251 110.624 84.3083 105.612 84.3083 105.612C89.4306 105.612 94.8084 113.706 94.8084 113.706C93.7834 107.283 89.1147 101.758 89.1147 101.758C81.3825 93.0883 72.5046 97.6537 66.5439 102.824Z" fill="white"/>
</svg>
